<svg class="railroad-diagram" height="179" viewBox="0 0 482.0 179" width="482.0" xmlns="http://www.w3.org/2000/svg" xmlns:xlink="http://www.w3.org/1999/xlink">
<g transform="translate(.5 .5)">
<g>
<path d="M20 30v20m10 -20v20m-10 -10h20" /></g><g>
<path d="M40 40h0.0" /><path d="M442.0 40h0.0" /><path d="M40.0 40h20" /><g>
<path d="M60.0 40h17.0" /><path d="M405.0 40h17.0" /><g class="non-terminal ">
<path d="M77.0 40h0.0" /><path d="M224.5 40h0.0" /><rect height="22" width="147.5" x="77" y="29"></rect><a xlink:href="atlas.html#C-DecimalConstant"><text x="150.75" y="44">DecimalConstant</text><text x="150.75" y="44">DecimalConstant</text></a></g><path d="M224.5 40h10" /><g>
<path d="M234.5 40h0.0" /><path d="M405.0 40h0.0" /><path d="M234.5 40a10 10 0 0 0 10 -10v0a10 10 0 0 1 10 -10" /><g>
<path d="M254.5 20h130.5" /></g><path d="M385.0 20a10 10 0 0 1 10 10v0a10 10 0 0 0 10 10" /><path d="M234.5 40h20" /><g class="non-terminal ">
<path d="M254.5 40h0.0" /><path d="M385.0 40h0.0" /><rect height="22" width="130.5" x="254.5" y="29"></rect><a xlink:href="atlas.html#C-IntegerSuffix"><text x="319.75" y="44">IntegerSuffix</text><text x="319.75" y="44">IntegerSuffix</text></a></g><path d="M385.0 40h20" /></g></g><path d="M422.0 40h20" /><path d="M40.0 40a10 10 0 0 1 10 10v19a10 10 0 0 0 10 10" /><g>
<path d="M60.0 79h25.5" /><path d="M396.5 79h25.5" /><g class="non-terminal ">
<path d="M85.5 79h0.0" /><path d="M216.0 79h0.0" /><rect height="22" width="130.5" x="85.5" y="68"></rect><a xlink:href="atlas.html#C-OctalConstant"><text x="150.75" y="83">OctalConstant</text><text x="150.75" y="83">OctalConstant</text></a></g><path d="M216.0 79h10" /><g>
<path d="M226.0 79h0.0" /><path d="M396.5 79h0.0" /><path d="M226.0 79a10 10 0 0 0 10 -10v0a10 10 0 0 1 10 -10" /><g>
<path d="M246.0 59h130.5" /></g><path d="M376.5 59a10 10 0 0 1 10 10v0a10 10 0 0 0 10 10" /><path d="M226.0 79h20" /><g class="non-terminal ">
<path d="M246.0 79h0.0" /><path d="M376.5 79h0.0" /><rect height="22" width="130.5" x="246" y="68"></rect><a xlink:href="atlas.html#C-IntegerSuffix"><text x="311.25" y="83">IntegerSuffix</text><text x="311.25" y="83">IntegerSuffix</text></a></g><path d="M376.5 79h20" /></g></g><path d="M422.0 79a10 10 0 0 0 10 -10v-19a10 10 0 0 1 10 -10" /><path d="M40.0 40a10 10 0 0 1 10 10v58a10 10 0 0 0 10 10" /><g>
<path d="M60.0 118h0.0" /><path d="M422.0 118h0.0" /><g class="non-terminal ">
<path d="M60.0 118h0.0" /><path d="M241.5 118h0.0" /><rect height="22" width="181.5" x="60" y="107"></rect><a xlink:href="atlas.html#C-HexadecimalConstant"><text x="150.75" y="122">HexadecimalConstant</text><text x="150.75" y="122">HexadecimalConstant</text></a></g><path d="M241.5 118h10" /><g>
<path d="M251.5 118h0.0" /><path d="M422.0 118h0.0" /><path d="M251.5 118a10 10 0 0 0 10 -10v0a10 10 0 0 1 10 -10" /><g>
<path d="M271.5 98h130.5" /></g><path d="M402.0 98a10 10 0 0 1 10 10v0a10 10 0 0 0 10 10" /><path d="M251.5 118h20" /><g class="non-terminal ">
<path d="M271.5 118h0.0" /><path d="M402.0 118h0.0" /><rect height="22" width="130.5" x="271.5" y="107"></rect><a xlink:href="atlas.html#C-IntegerSuffix"><text x="336.75" y="122">IntegerSuffix</text><text x="336.75" y="122">IntegerSuffix</text></a></g><path d="M402.0 118h20" /></g></g><path d="M422.0 118a10 10 0 0 0 10 -10v-58a10 10 0 0 1 10 -10" /><path d="M40.0 40a10 10 0 0 1 10 10v88a10 10 0 0 0 10 10" /><g class="non-terminal ">
<path d="M60.0 148h111.5" /><path d="M310.5 148h111.5" /><rect height="22" width="139" x="171.5" y="137"></rect><a xlink:href="atlas.html#C-BinaryConstant"><text x="241" y="152">BinaryConstant</text><text x="241" y="152">BinaryConstant</text></a></g><path d="M422.0 148a10 10 0 0 0 10 -10v-88a10 10 0 0 1 10 -10" /></g><path d="M 442.0 40 h 20 m -10 -10 v 20 m 10 -20 v 20"></path></g><style>/* <![CDATA[ */
	svg.railroad-diagram {
		background-color:hsl(30,20%,95%);
	}
	svg.railroad-diagram path {
		stroke-width:3;
		stroke:black;
		fill:rgba(0,0,0,0);
	}
	svg.railroad-diagram text {
		font:bold 14px monospace;
		text-anchor:middle;
	}
	svg.railroad-diagram text.label{
		text-anchor:start;
	}
	svg.railroad-diagram text.comment{
		font:italic 12px monospace;
	}
	svg.railroad-diagram rect{
		stroke-width:3;
		stroke:black;
		fill:hsl(120,100%,90%);
	}
	svg.railroad-diagram rect.group-box {
		stroke: gray;
		stroke-dasharray: 10 5;
		fill: none;
	}

/* ]]> */
</style></svg>